C:\Users\r0593348\3dpredictsim\Results\Batchsim_tmt_linear\Pog_s1_tmt_bCst_d00_k2000_ig24_act_GRF.mot
nRows=10
nColumns=19

name C:\Users\r0593348\3dpredictsim\Results\Batchsim_tmt_linear\Pog_s1_tmt_bCst_d00_k2000_ig24_act_GRF.mot
datacolumns 19
datarows 10
range 0.0000000000 0.1062632309
endheader
time 	ground_force_vx	ground_force_vy	ground_force_vz	ground_force_px	ground_force_py	ground_force_pz	1_ground_force_vx	1_ground_force_vy	1_ground_force_vz	1_ground_force_px	1_ground_force_py	1_ground_force_pz	ground_torque_x	ground_torque_y	ground_torque_z	1_ground_torque_x	1_ground_torque_y	1_ground_torque_z
        0.0000000000	      -67.9877668301	       52.4400888190	       17.0497617535	        0.1718052089	        0.0000000000	        0.0503644618	      107.0754810425	      431.2293918013	       -1.9187053899	       -0.3474203958	        0.0000000000	       -0.0353508729	        0.0000000000	        0.0000000000	        0.0000000000	        0.0000000000	        0.0000000000	        0.0000000000	
        0.0118070257	     -133.3298122397	      136.2320928964	       48.3926337701	        0.1803165465	        0.0000000000	        0.0484382747	       75.2343220197	      331.4000370468	       -7.5865390929	       -0.3403429054	        0.0000000000	       -0.0326226426	        0.0000000000	        0.0000000000	        0.0000000000	        0.0000000000	        0.0000000000	        0.0000000000	
        0.0236140513	      -61.5996449920	      303.0923068191	       19.1823078278	        0.1867927161	        0.0000000000	        0.0466833760	       42.4135874589	      223.1165706439	      -13.7421679478	       -0.3278315682	        0.0000000000	       -0.0272738260	        0.0000000000	        0.0000000000	        0.0000000000	        0.0000000000	        0.0000000000	        0.0000000000	
        0.0354210770	      -54.8867785596	      506.0368395917	       -3.7544607793	        0.1919295500	        0.0000000000	        0.0470716625	       27.1321730549	      168.3291778302	      -13.6583666173	       -0.3193398740	        0.0000000000	       -0.0229977173	        0.0000000000	        0.0000000000	        0.0000000000	        0.0000000000	        0.0000000000	        0.0000000000	
        0.0472281026	      -96.6666557128	      733.6476063847	      -14.4465979306	        0.2019515303	        0.0000000000	        0.0495343842	       24.0201500791	      131.8205943359	      -15.4489923987	       -0.3190048904	        0.0000000000	       -0.0232305463	        0.0000000000	        0.0000000000	        0.0000000000	        0.0000000000	        0.0000000000	        0.0000000000	
        0.0590351283	     -123.3971205064	      856.6499578593	      -20.8050491692	        0.2087929471	        0.0000000000	        0.0511146346	       15.6017055201	       86.0943569437	      -14.2306984718	       -0.3186484568	        0.0000000000	       -0.0233301289	        0.0000000000	        0.0000000000	        0.0000000000	        0.0000000000	        0.0000000000	        0.0000000000	
        0.0708421539	     -128.7612461463	      879.7440180783	      -20.8521467537	        0.2132738913	        0.0000000000	        0.0520401616	        1.0647126011	       34.9628593418	       -7.5387139970	       -0.3191418130	        0.0000000000	       -0.0232592100	        0.0000000000	        0.0000000000	        0.0000000000	        0.0000000000	        0.0000000000	        0.0000000000	
        0.0826491796	     -120.4984780715	      860.6134294675	      -20.1495679534	        0.2169900006	        0.0000000000	        0.0525478423	        0.2942358725	       -0.3005176170	        0.0111378083	        0.0000000000	        0.0000000000	        0.0000000000	        0.0000000000	        0.0000000000	        0.0000000000	        0.0000000000	        0.0000000000	        0.0000000000	
        0.0944562052	     -106.8927482468	      823.9260875397	      -19.5909316055	        0.2209425679	        0.0000000000	        0.0527148890	        0.0012845833	       -0.0010479499	       -0.0000737413	        0.0000000000	        0.0000000000	        0.0000000000	        0.0000000000	        0.0000000000	        0.0000000000	        0.0000000000	        0.0000000000	        0.0000000000	
        0.1062632309	      -93.7804160473	      782.6221132780	      -19.1181177374	        0.2254421366	        0.0000000000	        0.0526658948	        0.0016011446	       -0.0011196062	       -0.0001167975	        0.0000000000	        0.0000000000	        0.0000000000	        0.0000000000	        0.0000000000	        0.0000000000	        0.0000000000	        0.0000000000	        0.0000000000	
